<mxfile host="app.diagrams.net" agent="Mozilla/5.0 (Macintosh; Intel Mac OS X 10_15_7) AppleWebKit/537.36 (KHTML, like Gecko) Chrome/130.0.0.0 Safari/537.36" version="24.8.4">
  <diagram id="C5RBs43oDa-KdzZeNtuy" name="Page-1">
    <mxGraphModel dx="2261" dy="785" grid="1" gridSize="10" guides="1" tooltips="1" connect="1" arrows="1" fold="1" page="1" pageScale="1" pageWidth="827" pageHeight="1169" math="0" shadow="0">
      <root>
        <mxCell id="WIyWlLk6GJQsqaUBKTNV-0" />
        <mxCell id="WIyWlLk6GJQsqaUBKTNV-1" parent="WIyWlLk6GJQsqaUBKTNV-0" />
        <mxCell id="EDiG15ufhyDt5dYz0w1S-1" value="" style="edgeStyle=orthogonalEdgeStyle;rounded=0;orthogonalLoop=1;jettySize=auto;html=1;" edge="1" parent="WIyWlLk6GJQsqaUBKTNV-1" source="WIyWlLk6GJQsqaUBKTNV-3" target="EDiG15ufhyDt5dYz0w1S-0">
          <mxGeometry relative="1" as="geometry" />
        </mxCell>
        <mxCell id="WIyWlLk6GJQsqaUBKTNV-3" value="receiver" style="rounded=1;whiteSpace=wrap;html=1;fontSize=12;glass=0;strokeWidth=1;shadow=0;" parent="WIyWlLk6GJQsqaUBKTNV-1" vertex="1">
          <mxGeometry x="-150" y="150" width="120" height="40" as="geometry" />
        </mxCell>
        <mxCell id="EDiG15ufhyDt5dYz0w1S-0" value="create a request" style="rounded=1;whiteSpace=wrap;html=1;fontSize=12;glass=0;strokeWidth=1;shadow=0;" vertex="1" parent="WIyWlLk6GJQsqaUBKTNV-1">
          <mxGeometry x="-150" y="270" width="120" height="40" as="geometry" />
        </mxCell>
        <mxCell id="EDiG15ufhyDt5dYz0w1S-4" value="" style="edgeStyle=orthogonalEdgeStyle;rounded=0;orthogonalLoop=1;jettySize=auto;html=1;" edge="1" parent="WIyWlLk6GJQsqaUBKTNV-1" source="EDiG15ufhyDt5dYz0w1S-2" target="EDiG15ufhyDt5dYz0w1S-3">
          <mxGeometry relative="1" as="geometry">
            <Array as="points">
              <mxPoint x="220" y="220" />
              <mxPoint x="220" y="220" />
            </Array>
          </mxGeometry>
        </mxCell>
        <mxCell id="EDiG15ufhyDt5dYz0w1S-2" value="donor" style="rounded=1;whiteSpace=wrap;html=1;" vertex="1" parent="WIyWlLk6GJQsqaUBKTNV-1">
          <mxGeometry x="160" y="150" width="120" height="40" as="geometry" />
        </mxCell>
        <mxCell id="EDiG15ufhyDt5dYz0w1S-6" value="" style="edgeStyle=orthogonalEdgeStyle;rounded=0;orthogonalLoop=1;jettySize=auto;html=1;" edge="1" parent="WIyWlLk6GJQsqaUBKTNV-1" source="EDiG15ufhyDt5dYz0w1S-3" target="EDiG15ufhyDt5dYz0w1S-5">
          <mxGeometry relative="1" as="geometry" />
        </mxCell>
        <mxCell id="EDiG15ufhyDt5dYz0w1S-3" value="create a donation&lt;div&gt;(status: PENDING)&lt;/div&gt;" style="whiteSpace=wrap;html=1;rounded=1;" vertex="1" parent="WIyWlLk6GJQsqaUBKTNV-1">
          <mxGeometry x="160" y="260" width="120" height="60" as="geometry" />
        </mxCell>
        <mxCell id="EDiG15ufhyDt5dYz0w1S-8" value="" style="edgeStyle=orthogonalEdgeStyle;rounded=0;orthogonalLoop=1;jettySize=auto;html=1;" edge="1" parent="WIyWlLk6GJQsqaUBKTNV-1" source="EDiG15ufhyDt5dYz0w1S-5" target="EDiG15ufhyDt5dYz0w1S-7">
          <mxGeometry relative="1" as="geometry" />
        </mxCell>
        <mxCell id="EDiG15ufhyDt5dYz0w1S-9" value="yes" style="edgeLabel;html=1;align=center;verticalAlign=middle;resizable=0;points=[];" vertex="1" connectable="0" parent="EDiG15ufhyDt5dYz0w1S-8">
          <mxGeometry x="-0.3111" relative="1" as="geometry">
            <mxPoint as="offset" />
          </mxGeometry>
        </mxCell>
        <mxCell id="EDiG15ufhyDt5dYz0w1S-15" value="" style="edgeStyle=orthogonalEdgeStyle;rounded=0;orthogonalLoop=1;jettySize=auto;html=1;" edge="1" parent="WIyWlLk6GJQsqaUBKTNV-1" source="EDiG15ufhyDt5dYz0w1S-5" target="EDiG15ufhyDt5dYz0w1S-14">
          <mxGeometry relative="1" as="geometry" />
        </mxCell>
        <mxCell id="EDiG15ufhyDt5dYz0w1S-27" value="No" style="edgeLabel;html=1;align=center;verticalAlign=middle;resizable=0;points=[];" vertex="1" connectable="0" parent="EDiG15ufhyDt5dYz0w1S-15">
          <mxGeometry x="-0.0889" y="3" relative="1" as="geometry">
            <mxPoint as="offset" />
          </mxGeometry>
        </mxCell>
        <mxCell id="EDiG15ufhyDt5dYz0w1S-5" value="receiver approve" style="rhombus;whiteSpace=wrap;html=1;rounded=1;" vertex="1" parent="WIyWlLk6GJQsqaUBKTNV-1">
          <mxGeometry x="150" y="360" width="140" height="80" as="geometry" />
        </mxCell>
        <mxCell id="EDiG15ufhyDt5dYz0w1S-22" value="" style="edgeStyle=orthogonalEdgeStyle;rounded=0;orthogonalLoop=1;jettySize=auto;html=1;" edge="1" parent="WIyWlLk6GJQsqaUBKTNV-1" source="EDiG15ufhyDt5dYz0w1S-7" target="EDiG15ufhyDt5dYz0w1S-21">
          <mxGeometry relative="1" as="geometry" />
        </mxCell>
        <mxCell id="EDiG15ufhyDt5dYz0w1S-7" value="donation confirmed&lt;div&gt;(status: PROCESSING)&lt;/div&gt;" style="whiteSpace=wrap;html=1;rounded=1;" vertex="1" parent="WIyWlLk6GJQsqaUBKTNV-1">
          <mxGeometry x="150" y="500" width="140" height="60" as="geometry" />
        </mxCell>
        <mxCell id="EDiG15ufhyDt5dYz0w1S-14" value="donation cancelled&lt;div&gt;(status: CANCELLED)&lt;/div&gt;" style="whiteSpace=wrap;html=1;rounded=1;" vertex="1" parent="WIyWlLk6GJQsqaUBKTNV-1">
          <mxGeometry x="380" y="370" width="130" height="60" as="geometry" />
        </mxCell>
        <mxCell id="EDiG15ufhyDt5dYz0w1S-24" value="" style="edgeStyle=orthogonalEdgeStyle;rounded=0;orthogonalLoop=1;jettySize=auto;html=1;" edge="1" parent="WIyWlLk6GJQsqaUBKTNV-1" source="EDiG15ufhyDt5dYz0w1S-21" target="EDiG15ufhyDt5dYz0w1S-23">
          <mxGeometry relative="1" as="geometry" />
        </mxCell>
        <mxCell id="EDiG15ufhyDt5dYz0w1S-28" value="Yes" style="edgeLabel;html=1;align=center;verticalAlign=middle;resizable=0;points=[];" vertex="1" connectable="0" parent="EDiG15ufhyDt5dYz0w1S-24">
          <mxGeometry x="-0.2667" y="-2" relative="1" as="geometry">
            <mxPoint as="offset" />
          </mxGeometry>
        </mxCell>
        <mxCell id="EDiG15ufhyDt5dYz0w1S-26" value="" style="edgeStyle=orthogonalEdgeStyle;rounded=0;orthogonalLoop=1;jettySize=auto;html=1;" edge="1" parent="WIyWlLk6GJQsqaUBKTNV-1" source="EDiG15ufhyDt5dYz0w1S-21" target="EDiG15ufhyDt5dYz0w1S-25">
          <mxGeometry relative="1" as="geometry" />
        </mxCell>
        <mxCell id="EDiG15ufhyDt5dYz0w1S-29" value="No" style="edgeLabel;html=1;align=center;verticalAlign=middle;resizable=0;points=[];" vertex="1" connectable="0" parent="EDiG15ufhyDt5dYz0w1S-26">
          <mxGeometry x="-0.1333" y="1" relative="1" as="geometry">
            <mxPoint as="offset" />
          </mxGeometry>
        </mxCell>
        <mxCell id="EDiG15ufhyDt5dYz0w1S-21" value="donor sends gifts&lt;div&gt;add tracking number&lt;/div&gt;" style="rhombus;whiteSpace=wrap;html=1;rounded=1;" vertex="1" parent="WIyWlLk6GJQsqaUBKTNV-1">
          <mxGeometry x="140" y="630" width="160" height="80" as="geometry" />
        </mxCell>
        <mxCell id="EDiG15ufhyDt5dYz0w1S-34" value="" style="edgeStyle=orthogonalEdgeStyle;rounded=0;orthogonalLoop=1;jettySize=auto;html=1;" edge="1" parent="WIyWlLk6GJQsqaUBKTNV-1" source="EDiG15ufhyDt5dYz0w1S-23" target="EDiG15ufhyDt5dYz0w1S-33">
          <mxGeometry relative="1" as="geometry" />
        </mxCell>
        <mxCell id="EDiG15ufhyDt5dYz0w1S-23" value="donation shipping&lt;div&gt;(status: SHIPPING)&lt;/div&gt;" style="whiteSpace=wrap;html=1;rounded=1;" vertex="1" parent="WIyWlLk6GJQsqaUBKTNV-1">
          <mxGeometry x="160" y="770" width="120" height="60" as="geometry" />
        </mxCell>
        <mxCell id="EDiG15ufhyDt5dYz0w1S-25" value="donation cancelled&lt;div&gt;(status: CANCELLED)&lt;/div&gt;" style="whiteSpace=wrap;html=1;rounded=1;" vertex="1" parent="WIyWlLk6GJQsqaUBKTNV-1">
          <mxGeometry x="390" y="640" width="130" height="60" as="geometry" />
        </mxCell>
        <mxCell id="EDiG15ufhyDt5dYz0w1S-36" value="" style="edgeStyle=orthogonalEdgeStyle;rounded=0;orthogonalLoop=1;jettySize=auto;html=1;" edge="1" parent="WIyWlLk6GJQsqaUBKTNV-1" source="EDiG15ufhyDt5dYz0w1S-33" target="EDiG15ufhyDt5dYz0w1S-35">
          <mxGeometry relative="1" as="geometry" />
        </mxCell>
        <mxCell id="EDiG15ufhyDt5dYz0w1S-37" value="Yes" style="edgeLabel;html=1;align=center;verticalAlign=middle;resizable=0;points=[];" vertex="1" connectable="0" parent="EDiG15ufhyDt5dYz0w1S-36">
          <mxGeometry x="-0.3999" y="2" relative="1" as="geometry">
            <mxPoint as="offset" />
          </mxGeometry>
        </mxCell>
        <mxCell id="EDiG15ufhyDt5dYz0w1S-33" value="receive donation&lt;div&gt;(status: RECEIVED)&lt;/div&gt;" style="rhombus;whiteSpace=wrap;html=1;rounded=1;" vertex="1" parent="WIyWlLk6GJQsqaUBKTNV-1">
          <mxGeometry x="136.25" y="890" width="167.5" height="80" as="geometry" />
        </mxCell>
        <mxCell id="EDiG15ufhyDt5dYz0w1S-35" value="add reviews" style="whiteSpace=wrap;html=1;rounded=1;" vertex="1" parent="WIyWlLk6GJQsqaUBKTNV-1">
          <mxGeometry x="160" y="1020" width="120" height="60" as="geometry" />
        </mxCell>
      </root>
    </mxGraphModel>
  </diagram>
</mxfile>
